<svg width="32" height="32" viewBox="0 0 32 32" fill="none" xmlns="http://www.w3.org/2000/svg">
<path fill-rule="evenodd" clip-rule="evenodd" d="M8.89635 26.4271C9.45902 26.4271 9.91635 26.8844 9.91635 27.4471C9.91635 28.0097 9.45902 28.4657 8.89635 28.4657C8.33369 28.4657 7.87769 28.0097 7.87769 27.4471C7.87769 26.8844 8.33369 26.4271 8.89635 26.4271Z" stroke="#D2C86F" stroke-width="2" stroke-linecap="round" stroke-linejoin="round"/>
<path fill-rule="evenodd" clip-rule="evenodd" d="M23.8996 26.4271C24.4623 26.4271 24.9196 26.8844 24.9196 27.4471C24.9196 28.0097 24.4623 28.4657 23.8996 28.4657C23.337 28.4657 22.8796 28.0097 22.8796 27.4471C22.8796 26.8844 23.337 26.4271 23.8996 26.4271Z" stroke="#D2C86F" stroke-width="2" stroke-linecap="round" stroke-linejoin="round"/>
<path d="M2.6665 4.33334L5.43984 4.81334L6.72384 20.1107C6.82784 21.3573 7.86917 22.3147 9.11984 22.3147H23.6692C24.8638 22.3147 25.8772 21.4373 26.0492 20.2533L27.3145 11.5093C27.4705 10.4307 26.6345 9.46534 25.5452 9.46534H5.88517" stroke="#D2C86F" stroke-width="2" stroke-linecap="round" stroke-linejoin="round"/>
</svg>
