<svg width="32" height="32" viewBox="0 0 32 32" fill="none" xmlns="http://www.w3.org/2000/svg">
<path fill-rule="evenodd" clip-rule="evenodd" d="M25.7594 7.9033C26.5721 7.9033 27.105 8.18904 27.6379 8.81496C28.1708 9.44087 28.2641 10.3389 28.1442 11.154L26.8785 20.08C26.6387 21.7958 25.1998 23.0599 23.5078 23.0599H8.97244C7.20049 23.0599 5.73497 21.6734 5.58841 19.8773L4.3627 5.04451L2.35094 4.69074C1.81802 4.59549 1.44498 4.06483 1.53824 3.52055C1.6315 2.96404 2.15109 2.59529 2.69733 2.67829L5.87486 3.16678C6.32784 3.24978 6.66091 3.62941 6.70088 4.09204L6.95402 7.13996C6.99399 7.57674 7.34038 7.9033 7.76672 7.9033H25.7594ZM8.75901 25.2104C7.63988 25.2104 6.73392 26.1357 6.73392 27.2787C6.73392 28.408 7.63988 29.3333 8.75901 29.3333C9.86481 29.3333 10.7708 28.408 10.7708 27.2787C10.7708 26.1357 9.86481 25.2104 8.75901 25.2104ZM23.7473 25.2104C22.6282 25.2104 21.7222 26.1357 21.7222 27.2787C21.7222 28.408 22.6282 29.3333 23.7473 29.3333C24.8531 29.3333 25.7591 28.408 25.7591 27.2787C25.7591 26.1357 24.8531 25.2104 23.7473 25.2104Z" fill="#D2C86F"/>
</svg>
