<svg width="28" height="28" viewBox="0 0 28 28" fill="none" xmlns="http://www.w3.org/2000/svg">
<path fill-rule="evenodd" clip-rule="evenodd" d="M3.4888 5.68462C3.85784 5.07358 5.89116 2.85106 7.34217 2.91815C7.77591 2.95409 8.15933 3.21648 8.47086 3.52081C9.18617 4.21932 11.2339 6.86118 11.3501 7.41711C11.6329 8.78058 10.0081 9.56655 10.5054 10.9408C11.7731 14.0427 13.9574 16.2269 17.0607 17.4933C18.4338 17.9906 19.2198 16.3659 20.5833 16.6499C21.1381 16.7661 23.7813 18.8137 24.4798 19.529C24.783 19.8393 25.0466 20.2239 25.0825 20.6576C25.1364 22.1852 22.776 24.2472 22.3159 24.5108C21.2303 25.2871 19.8141 25.274 18.0875 24.4712C13.2696 22.4668 5.57005 14.9126 3.52834 9.91281C2.74712 8.19589 2.69321 6.77012 3.4888 5.68462Z" stroke="#D2C86F" stroke-width="2" stroke-linecap="round" stroke-linejoin="round"/>
</svg>
