<svg width="28" height="28" viewBox="0 0 28 28" fill="none" xmlns="http://www.w3.org/2000/svg">
<path fill-rule="evenodd" clip-rule="evenodd" d="M8.51047 15.8518C7.67706 15.8518 7 15.1747 7 14.3413C7 13.5104 7.67706 12.8333 8.51047 12.8333C9.34387 12.8333 10.0209 13.5104 10.0209 14.3413C10.0209 15.1747 9.34387 15.8518 8.51047 15.8518ZM14.0001 15.8518C13.1667 15.8518 12.4896 15.1747 12.4896 14.3413C12.4896 13.5104 13.1667 12.8333 14.0001 12.8333C14.8335 12.8333 15.5105 13.5104 15.5105 14.3413C15.5105 15.1747 14.8335 15.8518 14.0001 15.8518ZM17.9789 14.3413C17.9789 15.1747 18.656 15.8518 19.4894 15.8518C20.3228 15.8518 20.9998 15.1747 20.9998 14.3413C20.9998 13.5104 20.3228 12.8333 19.4894 12.8333C18.656 12.8333 17.9789 13.5104 17.9789 14.3413Z" fill="#D2C86F"/>
<path fill-rule="evenodd" clip-rule="evenodd" d="M14.0233 2.33333C7.24492 2.33333 2.33325 7.87047 2.33325 14.0175C2.33325 15.9805 2.90492 18.0007 3.90825 19.8468C4.09492 20.1517 4.11825 20.5361 3.98992 20.8995L3.20825 23.5168C3.03325 24.1477 3.56992 24.6139 4.16492 24.427L6.52159 23.7271C7.16325 23.5168 7.66492 23.7843 8.25992 24.1477C9.96325 25.1514 12.0866 25.6667 13.9999 25.6667C19.7866 25.6667 25.6666 21.1916 25.6666 13.9825C25.6666 7.76532 20.6499 2.33333 14.0233 2.33333Z" stroke="#D2C86F" stroke-width="2" stroke-linecap="round" stroke-linejoin="round"/>
</svg>
