<svg width="28" height="28" viewBox="0 0 28 28" fill="none" xmlns="http://www.w3.org/2000/svg">
<path d="M7.76673 6.74725C4.93419 7.03378 3.20898 9.07683 3.20898 12.0829V20.4783C3.20898 23.7263 5.21798 25.8531 8.46598 25.8531C8.46598 25.8531 15.088 25.8496 15.1032 25.8496C17.9399 25.8321 19.8259 24.1848 20.2347 21.5833" stroke="#D2C86F" stroke-width="2" stroke-linecap="round" stroke-linejoin="round"/>
<path fill-rule="evenodd" clip-rule="evenodd" d="M19.7267 2.04143C19.7267 2.04143 13.1036 2.04609 13.0896 2.04609C9.86957 2.06593 7.87573 4.18459 7.87573 7.41626V15.8116C7.87573 19.0596 9.88473 21.1864 13.1327 21.1864C13.1327 21.1864 19.7547 21.1829 19.7699 21.1829C22.9899 21.1631 24.9849 19.0433 24.9849 15.8116V7.41626C24.9849 4.16826 22.9747 2.04143 19.7267 2.04143Z" stroke="#D2C86F" stroke-width="2" stroke-linecap="round" stroke-linejoin="round"/>
</svg>
