<svg width="28" height="28" viewBox="0 0 28 28" fill="none" xmlns="http://www.w3.org/2000/svg">
<path d="M22.5454 11.0462C22.5454 11.0462 21.9119 18.9037 21.5444 22.2136C21.3694 23.7944 20.3929 24.7207 18.7934 24.7499C15.7496 24.8047 12.7023 24.8082 9.65959 24.7441C8.12076 24.7126 7.16059 23.7746 6.98909 22.2217C6.61926 18.8827 5.98926 11.0462 5.98926 11.0462" stroke="#D2C86F" stroke-width="2" stroke-linecap="round" stroke-linejoin="round"/>
<path d="M24.1593 7.27965H4.375" stroke="#D2C86F" stroke-width="2" stroke-linecap="round" stroke-linejoin="round"/>
<path d="M20.3472 7.27965C19.4313 7.27965 18.6427 6.63215 18.463 5.73499L18.1795 4.31632C18.0045 3.66182 17.4118 3.20915 16.7363 3.20915H11.7978C11.1223 3.20915 10.5297 3.66182 10.3547 4.31632L10.0712 5.73499C9.89151 6.63215 9.10284 7.27965 8.18701 7.27965" stroke="#D2C86F" stroke-width="2" stroke-linecap="round" stroke-linejoin="round"/>
</svg>
