<svg width="132" height="40" viewBox="0 0 132 40" fill="none" xmlns="http://www.w3.org/2000/svg">
<path d="M18.1507 10.1724C18.742 10.1392 19.2347 10.2554 19.6289 10.5209C20.0231 10.7533 20.3023 11.0686 20.4666 11.4669C20.6308 11.8653 20.6637 12.33 20.5651 12.8611C20.4994 13.359 20.3187 13.8734 20.0231 14.4045C19.6618 14.9688 19.1526 15.4667 18.4956 15.8982C17.8386 16.3297 17.0831 16.5953 16.229 16.6949C15.3749 16.8276 14.5044 16.7447 13.6175 16.4459C12.7306 16.114 11.9422 15.5995 11.2524 14.9024C10.6282 14.2718 10.1355 13.5747 9.77414 12.8113C9.4128 12.0146 9.18285 11.2014 9.0843 10.3716C8.98576 9.54175 9.00218 8.71192 9.13358 7.88209C9.26497 7.01907 9.52777 6.20584 9.92196 5.44239C10.5789 4.14786 11.4002 3.08568 12.3856 2.25585C13.3711 1.42603 14.4552 0.828551 15.6377 0.463428C16.8203 0.0983021 18.0686 -0.051067 19.3825 0.0153203C20.7294 0.048513 22.0762 0.297461 23.423 0.762165C24.1128 0.994516 24.9998 1.39283 26.0838 1.95712C27.1678 2.48821 28.3011 3.03589 29.4837 3.60018C30.6662 4.16446 31.8488 4.64576 33.0314 5.04408C34.214 5.44239 35.2487 5.62496 36.1356 5.59176C37.0554 5.52538 37.7781 5.16025 38.3037 4.49639C38.8293 3.83253 39.0428 2.70396 38.9442 1.11069L40.3732 1.01111C40.7674 2.60438 40.8331 3.9819 40.5703 5.14366C40.3075 6.30542 39.7819 7.21823 38.9935 7.88209C38.238 8.54595 37.2525 8.96087 36.0371 9.12683C34.8545 9.2596 33.557 9.11024 32.1445 8.67872C31.4218 8.8115 30.7155 9.34259 30.0257 10.272C29.3358 11.1682 28.6624 12.2968 28.0055 13.6577C27.3485 14.9854 26.6915 16.4459 26.0345 18.0392C25.3775 19.5993 24.737 21.1262 24.1128 22.6198C25.5253 22.9186 26.6751 23.1343 27.562 23.2671C28.4818 23.3667 29.2702 23.1177 29.9271 22.5203L30.8141 24.014C30.0585 24.4787 29.3523 24.8106 28.6953 25.0097C28.0712 25.2089 27.447 25.3417 26.8229 25.4081C26.2316 25.4413 25.6239 25.4413 24.9998 25.4081C24.3756 25.3417 23.7022 25.2753 22.9795 25.2089L22.1911 26.8022C21.0743 28.9265 19.826 30.9845 18.4463 32.9761C17.0995 34.9345 15.3914 36.5941 13.3219 37.9551C12.4678 38.4862 11.4659 38.9509 10.3161 39.3492C9.16643 39.7475 8.00028 39.9632 6.81771 39.9964C5.66798 40.0296 4.56753 39.8305 3.51636 39.399C2.49803 38.9675 1.6768 38.1874 1.05267 37.0588C0.461382 35.9967 0.116465 34.8515 0.0179178 33.6234C-0.0477807 32.3952 0.0671916 31.1837 0.362835 29.9887C0.691327 28.7606 1.18407 27.6154 1.84105 26.5532C2.49803 25.4579 3.28642 24.545 4.20619 23.8148C5.15882 23.0513 6.19357 22.5037 7.31044 22.1717C8.46017 21.8398 9.67559 21.8232 10.9567 22.1219C11.3181 22.2215 11.7287 22.4373 12.1886 22.7692C12.6813 23.0679 13.0262 23.4829 13.2233 24.014C13.4532 23.3169 13.7982 22.7858 14.2581 22.4207C14.7179 22.0224 15.2435 21.7568 15.8348 21.624C16.459 21.4913 17.1159 21.4581 17.8058 21.5245C18.5285 21.5577 19.2347 21.6406 19.9245 21.7734L21.0578 19.4831C21.5506 18.5537 22.0762 17.4749 22.6346 16.2468C23.2259 15.0186 23.8665 13.8237 24.5563 12.6619C25.279 11.5001 26.0509 10.4546 26.8722 9.52515C27.6934 8.59574 28.5803 7.98167 29.5329 7.68293C28.3832 7.18504 27.2499 6.65395 26.133 6.08966C25.0162 5.49219 23.8829 4.97769 22.7332 4.54618C21.6163 4.08148 20.4501 3.74955 19.2347 3.55039C18.0521 3.31803 16.8039 3.33463 15.4899 3.60018C14.7672 3.76614 14.1102 4.04828 13.5189 4.4466C12.9277 4.84492 12.4185 5.32622 11.9915 5.8905C11.5973 6.45479 11.2852 7.08546 11.0553 7.78251C10.8582 8.44637 10.776 9.14343 10.8089 9.87368C10.8417 10.5375 10.9896 11.1184 11.2524 11.6163C11.548 12.081 11.9093 12.4627 12.3364 12.7615C12.7634 13.0602 13.2397 13.2594 13.7653 13.359C14.2909 13.4585 14.8329 13.4253 15.3914 13.2594C16.114 13.0934 16.7382 12.7283 17.2638 12.164C17.7893 11.5997 18.085 10.9359 18.1507 10.1724ZM35.0516 17.9396C36.5298 14.9522 37.9916 12.2968 39.437 9.97326C40.8823 7.61655 42.2456 5.69134 43.5267 4.19765C44.8078 2.67077 45.9904 1.60859 47.0744 1.01111C48.1585 0.380444 49.0782 0.297461 49.8338 0.762165C50.5564 1.22687 50.8192 2.15628 50.6221 3.55039C50.4579 4.91131 49.8009 6.67054 48.6512 8.82809C47.5015 10.9856 45.8426 13.5083 43.6745 16.3961C41.5393 19.2839 38.8621 22.4373 35.6429 25.8562C35.3144 26.9183 35.1009 27.8146 35.0023 28.5448C34.9038 29.2751 34.8709 29.8891 34.9038 30.387C34.9366 30.8517 35.0188 31.2169 35.1502 31.4824C35.2816 31.7148 35.413 31.8641 35.5444 31.9305C35.7743 32.0633 36.1192 31.9969 36.5791 31.7314C37.039 31.4658 37.5317 31.0675 38.0573 30.5364C38.6158 29.9721 39.1742 29.2917 39.7326 28.495C40.3239 27.6984 40.8331 26.8354 41.2601 25.906L42.3934 27.1009C40.8824 30.2543 39.322 32.4284 37.7124 33.6234C36.1356 34.8183 34.7231 35.2166 33.4749 34.8183C32.8836 34.6523 32.3416 34.254 31.8488 33.6234C31.3889 32.9595 31.1426 31.9637 31.1097 30.636C31.1097 29.3083 31.3889 27.6154 31.9474 25.5574C32.5386 23.4995 33.5734 20.9602 35.0516 17.9396ZM13.4697 27.2503C12.9112 26.52 12.205 26.0221 11.3509 25.7566C10.5297 25.4579 9.67559 25.3915 8.78866 25.5574C7.90173 25.6902 7.03123 26.0387 6.17715 26.603C5.35592 27.1341 4.64966 27.8478 4.05837 28.744C3.59848 29.441 3.17144 30.1879 2.77725 30.9845C2.41591 31.7811 2.20239 32.6608 2.13669 33.6234C2.07099 34.5528 2.23524 35.4324 2.62943 36.2622C3.05647 37.1252 3.71346 37.6729 4.60038 37.9053C5.98005 38.2704 7.31045 38.1044 8.59157 37.4074C9.90553 36.7103 11.1374 35.7145 12.2871 34.42C13.4697 33.1255 14.5537 31.6484 15.5392 29.9887C16.5575 28.3291 17.4773 26.7026 18.2985 25.1093C17.4444 25.2089 16.6232 25.4247 15.8348 25.7566C15.0464 26.0553 14.2581 26.5532 13.4697 27.2503ZM48.4048 4.64576C48.2734 4.54618 47.8957 4.81173 47.2715 5.44239C46.6802 6.07306 45.9247 7.01907 45.0049 8.28041C44.0852 9.54175 43.0504 11.1184 41.9007 13.0104C40.751 14.8692 39.5848 16.9936 38.4022 19.3835L37.3182 21.624C38.8621 19.732 40.3403 17.8234 41.7529 15.8982C43.1982 13.9398 44.4465 12.164 45.4977 10.5707C46.5817 8.94427 47.3865 7.59995 47.9121 6.53777C48.4705 5.4424 48.6348 4.81173 48.4048 4.64576Z" fill="#565679"/>
<path d="M56.8734 17.4417L51.8967 28.2461L51.7982 28.4452C51.2397 29.607 50.8948 30.4866 50.7634 31.0841C50.632 31.6484 50.7798 31.9305 51.2069 31.9305C51.8639 31.9305 52.5701 31.3994 53.3257 30.3372C54.0812 29.2419 54.886 27.7648 55.7401 25.906L56.8734 27.1009C55.6908 29.6568 54.4754 31.6484 53.2271 33.0757C51.9788 34.4698 50.5992 35.1668 49.0881 35.1668C47.5442 35.1668 46.6901 34.4034 46.5259 32.8765C45.5404 33.8391 44.5385 34.5362 43.5202 34.9677C42.5347 35.366 41.6149 35.2996 40.7608 34.7685C39.9068 34.2042 39.5126 33.1089 39.5783 31.4824C39.644 29.8559 40.186 28.0137 41.2043 25.9557C42.1569 23.9974 43.126 22.3875 44.1115 21.1261C45.0969 19.8316 46.0496 18.8358 46.9693 18.1388C47.8891 17.4417 48.7596 17.0102 49.5808 16.8442C50.4021 16.6783 51.1083 16.7281 51.6996 16.9936C52.1595 17.226 52.4716 17.5413 52.6358 17.9396L52.8822 17.4417H56.8734ZM49.4823 25.3583C49.8436 24.5284 50.1721 23.7484 50.4678 23.0182C50.7963 22.2879 51.0262 21.6406 51.1576 21.0764C51.3219 20.4789 51.3876 19.9976 51.3547 19.6325C51.3547 19.2341 51.2069 18.952 50.9112 18.786C50.6484 18.6201 50.2871 18.703 49.8272 19.035C49.4002 19.3337 48.9239 19.7818 48.3983 20.3793C47.9055 20.9768 47.3964 21.6904 46.8708 22.5203C46.3452 23.3501 45.8853 24.1965 45.4911 25.0595C45.1298 25.823 44.8177 26.5864 44.5549 27.3499C44.2921 28.0801 44.095 28.7606 43.9636 29.3912C43.8322 30.0219 43.7665 30.553 43.7665 30.9845C43.7994 31.416 43.9472 31.6816 44.21 31.7811C44.4399 31.9139 44.7684 31.8143 45.1955 31.4824C45.6225 31.1505 46.0824 30.6858 46.5751 30.0883C47.0679 29.4576 47.577 28.7274 48.1026 27.8975C48.6282 27.0677 49.0881 26.2213 49.4823 25.3583Z" fill="#565679"/>
<path d="M75.2498 25.906L76.3831 27.1009C75.2334 29.6568 74.018 31.6484 72.7369 33.0757C71.4886 34.4698 70.1253 35.1668 68.6471 35.1668C67.8916 35.1668 67.2839 34.9843 66.824 34.6192C66.397 34.254 66.1834 33.64 66.1834 32.7769C66.2163 31.9139 66.5284 30.7853 67.1196 29.3912C67.7438 27.9639 68.7293 26.2213 70.0761 24.1633C70.7988 23.1011 71.3079 22.2215 71.6036 21.5245C71.8992 20.7942 71.8663 20.4291 71.505 20.4291C71.3079 20.4291 71.0287 20.5785 70.6674 20.8772C70.306 21.1427 69.8954 21.5079 69.4355 21.9726C69.0085 22.4373 68.565 22.985 68.1051 23.6156C67.6452 24.2463 67.2182 24.9268 66.824 25.657C66.4298 26.3873 65.9699 27.2835 65.4443 28.3457C64.9516 29.3746 64.4753 30.387 64.0154 31.3828C63.4898 32.5446 62.9642 33.7561 62.4386 35.0175H58.3982C59.1537 33.4242 59.86 31.9305 60.5169 30.5364C60.8126 29.9389 61.0918 29.3414 61.3546 28.744C61.6502 28.1133 61.9295 27.5158 62.1923 26.9515C62.4879 26.3541 62.7507 25.823 62.9806 25.3583C63.2106 24.8604 63.4077 24.4621 63.5719 24.1633C64.7873 21.7734 65.0501 20.5785 64.3603 20.5785C64.0318 20.5785 63.5719 20.9436 62.9806 21.6738C62.3894 22.4041 61.7159 23.3833 60.9604 24.6114C60.2377 25.8396 59.4493 27.2503 58.5953 28.8436C57.774 30.4036 56.9528 32.0301 56.1316 33.7229V33.6731L55.491 35.0175H51.4506L59.6793 17.4417H63.7197L62.5372 19.9312C63.3912 19.035 64.2125 18.4043 65.0009 18.0392C65.7892 17.6409 66.6269 17.4417 67.5138 17.4417C68.1051 17.4417 68.565 17.6741 68.8935 18.1388C69.222 18.5703 69.3534 19.1512 69.2877 19.8814C71.0615 18.2549 72.6055 17.4417 73.9194 17.4417C74.3465 17.4417 74.7078 17.5579 75.0035 17.7902C75.3319 18.0226 75.5619 18.3545 75.6933 18.786C75.8247 19.1844 75.8411 19.6657 75.7426 20.2299C75.6769 20.7942 75.4633 21.3917 75.102 22.0224C73.9194 24.1467 72.9668 25.8728 72.2441 27.2005C71.5214 28.495 70.9794 29.5074 70.6181 30.2377C70.2896 30.9679 70.1089 31.4658 70.0761 31.7314C70.0761 31.9637 70.1746 32.0799 70.3717 32.0799C71.0287 32.0799 71.7842 31.5156 72.6383 30.387C73.5252 29.2585 74.3957 27.7648 75.2498 25.906Z" fill="#565679"/>
<path d="M92.2732 21.5743L92.9137 22.9186C92.0268 23.4829 91.1234 23.9144 90.2037 24.2131C89.3167 24.5118 88.4462 24.6944 87.5921 24.7608C87.5264 25.0263 87.4279 25.2753 87.2965 25.5076C87.198 25.74 87.0994 25.9889 87.0009 26.2545C86.4096 27.5158 85.6705 28.7606 84.7835 29.9887C83.9295 31.2169 82.9933 32.2624 81.9749 33.1255C80.9566 33.9885 79.9054 34.6026 78.8214 34.9677C77.7702 35.2996 76.7355 35.2332 75.7171 34.7685C74.666 34.2706 74.0418 33.2582 73.8447 31.7314C73.6148 30.2045 74.009 28.412 75.0273 26.3541C75.9799 24.3957 76.9819 22.7526 78.033 21.4249C79.0842 20.064 80.1189 19.0018 81.1373 18.2383C82.1884 17.4749 83.1739 16.9936 84.0937 16.7944C85.0463 16.5953 85.9004 16.6617 86.6559 16.9936C86.9844 17.1596 87.2965 17.4251 87.5921 17.7902C87.8878 18.1222 88.0356 18.5039 88.0356 18.9354C87.5429 18.5371 86.9516 18.3213 86.2617 18.2881C85.6048 18.2217 84.8985 18.4375 84.143 18.9354C83.3874 19.4001 82.5991 20.1635 81.7778 21.2257C80.9566 22.2547 80.1354 23.6654 79.3141 25.4579C78.5915 26.9847 78.2137 28.3125 78.1808 29.441C78.1808 30.5364 78.5258 31.2666 79.2156 31.6318C79.5441 31.8309 79.9547 31.7977 80.4474 31.5322C80.973 31.2666 81.515 30.8517 82.0735 30.2875C82.6319 29.69 83.1739 28.9929 83.6995 28.1963C84.2579 27.3665 84.7343 26.52 85.1284 25.657L85.5719 24.5616C84.8821 24.2629 84.4058 23.7982 84.143 23.1675C83.8802 22.5369 83.7816 21.9228 83.8473 21.3253C83.9459 20.6946 84.1923 20.147 84.5864 19.6822C85.0135 19.1844 85.5883 18.9354 86.311 18.9354C87.1979 18.9354 87.7892 19.3337 88.0849 20.1304C88.4134 20.927 88.4298 21.9062 88.1342 23.0679C88.8897 22.9684 89.6616 22.7858 90.45 22.5203C91.2384 22.2547 91.8461 21.9394 92.2732 21.5743Z" fill="#565679"/>
<path d="M105.527 17.4417L100.452 28.4452C99.8938 29.607 99.5489 30.4866 99.4175 31.0841C99.2861 31.6484 99.4339 31.9305 99.8609 31.9305C100.518 31.9305 101.224 31.3994 101.98 30.3372C102.735 29.2419 103.54 27.7648 104.394 25.906L105.527 27.1009C104.378 29.6568 103.162 31.6484 101.881 33.0757C100.633 34.4698 99.2697 35.1668 97.7914 35.1668C96.6417 35.1668 95.8698 34.7685 95.4756 33.9719C95.0814 33.1753 95.1142 32.0301 95.5741 30.5364C94.5558 31.8973 93.5539 33.0093 92.5684 33.8723C91.5829 34.7353 90.7124 35.1668 89.9569 35.1668C89.2671 35.1668 88.7086 35.0009 88.2816 34.6689C87.8546 34.337 87.5918 33.8059 87.4932 33.0757C87.3947 32.3454 87.4932 31.4326 87.7889 30.3372C88.0845 29.2419 88.6265 27.9141 89.4149 26.3541C90.1704 24.794 90.8603 23.4663 91.4844 22.3709C92.1085 21.2423 92.6505 20.3129 93.1104 19.5827C93.636 18.7196 94.0795 18.006 94.4408 17.4417H98.432C97.8079 18.4375 97.2002 19.4499 96.6089 20.4789C96.0833 21.3419 95.5413 22.3045 94.9828 23.3667C94.4244 24.3957 93.9152 25.3915 93.4553 26.3541C91.7472 30.0717 91.2709 31.9305 92.0264 31.9305C92.2892 31.9305 92.7819 31.4824 93.5046 30.5862C94.2602 29.69 95.0814 28.5946 95.9683 27.3001C96.8881 26.0055 97.8079 24.628 98.7276 23.1675C99.6474 21.707 100.419 20.4125 101.044 19.2839L102.029 17.4417H105.527Z" fill="#565679"/>
<path d="M113.748 25.906L114.881 27.1009C113.698 29.6568 112.483 31.6484 111.235 33.0757C109.986 34.4698 108.623 35.1668 107.145 35.1668C105.765 35.1668 104.928 34.586 104.632 33.4242C104.369 32.2624 104.731 30.6028 105.716 28.4452C106.045 27.715 106.34 27.0843 106.603 26.5532C106.866 26.0221 107.112 25.5574 107.342 25.1591C107.572 24.7276 107.786 24.3293 107.983 23.9642C108.213 23.5658 108.459 23.1343 108.722 22.6696C108.919 22.3045 109.001 21.956 108.968 21.624C108.968 21.2589 108.82 20.9436 108.525 20.678L105.273 27.6486L104.09 26.4536L107.441 19.3835C107.178 18.8192 107.03 18.2052 106.997 17.5413C106.997 16.8774 107.194 16.2136 107.588 15.5497C108.016 14.8195 108.525 14.4045 109.116 14.305C109.707 14.1722 110.2 14.2552 110.594 14.5539C110.988 14.8526 111.202 15.3008 111.235 15.8982C111.268 16.4625 110.956 17.0766 110.299 17.7404C110.036 18.006 109.888 18.2383 109.855 18.4375C109.822 18.6367 109.855 18.8026 109.954 18.9354C110.085 19.0682 110.249 19.1844 110.446 19.2839C110.643 19.3835 110.824 19.4665 110.988 19.5329C111.678 19.8648 112.155 20.3461 112.417 20.9768C112.68 21.5743 112.664 22.1717 112.368 22.7692L109.806 28.4452C109.247 29.607 108.902 30.4866 108.771 31.0841C108.64 31.6484 108.787 31.9305 109.215 31.9305C109.871 31.9305 110.578 31.3994 111.333 30.3372C112.089 29.2419 112.894 27.7648 113.748 25.906Z" fill="#565679"/>
<path d="M122.151 13.0104C121.888 13.973 121.33 14.7199 120.476 15.251L116.14 18.4375L115.204 17.4417L117.174 15.3505C116.517 14.8195 116.32 14.0394 116.583 13.0104C116.78 12.2138 117.224 11.5499 117.914 11.0188C118.603 10.4546 119.343 10.1724 120.131 10.1724C120.886 10.1724 121.461 10.4546 121.855 11.0188C122.25 11.5499 122.348 12.2138 122.151 13.0104Z" fill="#565679"/>
<path d="M130.335 25.906L131.468 27.1009C130.811 28.5614 129.875 29.8725 128.66 31.0343C127.477 32.1629 126.179 33.0757 124.767 33.7727C123.387 34.4366 121.975 34.8515 120.529 35.0175C119.084 35.1502 117.803 34.9511 116.686 34.42L117.376 32.8267C118.328 32.9927 119.232 32.7437 120.086 32.0799C120.94 31.3828 121.63 30.5032 122.155 29.441C122.714 28.3457 123.059 27.2005 123.19 26.0055C123.322 24.8106 123.141 23.7816 122.648 22.9186C122.582 22.7858 122.517 22.6696 122.451 22.5701C122.385 22.4373 122.32 22.3045 122.254 22.1717L119.642 27.6486L118.509 26.4536L121.613 19.8814C121.548 18.8856 121.712 17.9064 122.106 16.9438C122.5 15.9812 123.124 15.0684 123.978 14.2054C124.635 13.5747 125.26 13.2428 125.851 13.2096C126.442 13.1432 126.853 13.3092 127.083 13.7075C127.346 14.0726 127.362 14.6203 127.132 15.3505C126.935 16.0476 126.393 16.8442 125.506 17.7404C124.553 18.6699 123.995 19.3669 123.831 19.8316C123.699 20.2631 123.765 20.678 124.028 21.0764C124.291 21.4415 124.668 21.8564 125.161 22.3211C125.687 22.7858 126.147 23.4829 126.541 24.4123C126.935 25.3085 127.033 26.2379 126.836 27.2005C126.672 28.1631 126.344 29.0593 125.851 29.8891C125.358 30.6858 124.75 31.3662 124.028 31.9305C123.338 32.4948 122.665 32.8267 122.008 32.9263C122.697 32.8267 123.436 32.5778 124.225 32.1795C125.046 31.7479 125.834 31.2169 126.59 30.5862C127.378 29.9223 128.101 29.1921 128.758 28.3954C129.415 27.5656 129.941 26.7358 130.335 25.906Z" fill="#565679"/>
</svg>
