<svg width="28" height="28" viewBox="0 0 28 28" fill="none" xmlns="http://www.w3.org/2000/svg">
<path d="M10.6835 24.2333V20.6554C10.6835 19.7454 11.4254 19.006 12.3446 18.9999H15.7117C16.6353 18.9999 17.384 19.7411 17.384 20.6554V20.6554V24.2444C17.3838 25.0171 18.0067 25.6486 18.787 25.6667H21.0317C23.2694 25.6667 25.0834 23.8708 25.0834 21.6555V21.6555V11.4775C25.0715 10.606 24.6581 9.78757 23.9611 9.2552L16.2841 3.13285C14.9392 2.06683 13.0273 2.06683 11.6824 3.13285L4.03911 9.26631C3.33938 9.79653 2.92537 10.6163 2.91675 11.4886V21.6555C2.91675 23.8708 4.73077 25.6667 6.96848 25.6667H9.2132C10.0128 25.6667 10.6611 25.0249 10.6611 24.2333V24.2333" stroke="#D2C86F" stroke-width="2" stroke-linecap="round" stroke-linejoin="round"/>
</svg>
